<?xml version="1.0" encoding="utf-8"?><svg viewBox="0 0 22 22" xmlns="http://www.w3.org/2000/svg" xmlns:xlink="http://www.w3.org/1999/xlink"><style>:root>svg{display:none}:root>svg:target{display:block}</style><svg fill="none" viewBox="0 0 22 22" id="Calling" xmlns="http://www.w3.org/2000/svg"><path d="M13.353 1.5a7.97 7.97 0 017.04 7.032M13.353 5.043a4.426 4.426 0 013.5 3.5" stroke="#31352B" stroke-width="1.5" stroke-linecap="round" stroke-linejoin="round"/><path clip-rule="evenodd" d="M10.031 11.472c3.99 3.988 4.894-.625 7.434 1.913 2.449 2.448 3.857 2.938.754 6.04-.389.312-2.858 4.07-11.535-4.605-8.677-8.676-4.922-11.148-4.61-11.536 3.11-3.11 3.593-1.695 6.041.753 2.54 2.54-2.072 3.447 1.916 7.435z" stroke="#31352B" stroke-width="1.5" stroke-linecap="round" stroke-linejoin="round"/></svg><svg fill="none" viewBox="0 0 18 20" id="Location" xmlns="http://www.w3.org/2000/svg"><path clip-rule="evenodd" d="M11.5 8.5a2.5 2.5 0 10-5 0 2.5 2.5 0 005 0z" stroke="#31352B" stroke-width="1.5" stroke-linecap="round" stroke-linejoin="round"/><path clip-rule="evenodd" d="M9 19C7.8 19 1.5 13.898 1.5 8.563 1.5 4.387 4.857 1 9 1c4.142 0 7.5 3.387 7.5 7.563C16.5 13.898 10.198 19 9 19z" stroke="#31352B" stroke-width="1.5" stroke-linecap="round" stroke-linejoin="round"/></svg><svg fill="none" viewBox="0 0 22 20" id="Message" xmlns="http://www.w3.org/2000/svg"><path d="M16.903 6.851l-4.444 3.613c-.84.666-2.02.666-2.86 0L5.12 6.851" stroke="#31352B" stroke-width="1.5" stroke-linecap="round" stroke-linejoin="round"/><path clip-rule="evenodd" d="M15.909 19C18.95 19.008 21 16.51 21 13.438V6.57C21 3.499 18.95 1 15.909 1H6.09C3.05 1 1 3.499 1 6.57v6.868C1 16.51 3.05 19.008 6.091 19h9.818z" stroke="#31352B" stroke-width="1.5" stroke-linecap="round" stroke-linejoin="round"/></svg><svg fill="none" viewBox="0 0 21 20" id="cart" xmlns="http://www.w3.org/2000/svg"><path d="M1 1.176l2.08.356.963 11.34c.077.926.86 1.636 1.8 1.633h10.909a1.794 1.794 0 001.785-1.528l.949-6.482a1.328 1.328 0 00-1.135-1.501c-.064-.009-14.937-.014-14.937-.014M12.375 8.633h2.773" stroke="#363853" stroke-width="1.5" stroke-linecap="round" stroke-linejoin="round"/><path clip-rule="evenodd" d="M5.404 17.932a.54.54 0 01.544.538.541.541 0 01-.544.539.541.541 0 01-.544-.54.54.54 0 01.544-.537zM16.685 17.932c.3 0 .545.24.545.538a.542.542 0 01-.545.539.541.541 0 01-.544-.54.54.54 0 01.544-.537z" stroke="#363853" stroke-width="1.5" stroke-linecap="round" stroke-linejoin="round"/></svg><svg fill="none" viewBox="0 0 10 21" id="facebook" xmlns="http://www.w3.org/2000/svg"><path d="M2.547 20.526v-9.631H0V7.427h2.547V4.465C2.547 2.137 4.05 0 7.517 0 8.922 0 9.96.135 9.96.135l-.082 3.238s-1.058-.01-2.213-.01c-1.25 0-1.45.576-1.45 1.532v2.532h3.763l-.164 3.468h-3.6v9.631H2.547z" fill="#31352B"/></svg><svg fill="none" viewBox="0 0 20 20" id="instagram" xmlns="http://www.w3.org/2000/svg"><path d="M9.748 6.499A3.258 3.258 0 006.496 9.75a3.258 3.258 0 003.252 3.251 3.258 3.258 0 003.25-3.251 3.258 3.258 0 00-3.25-3.251zm9.751 3.251c0-1.346.013-2.68-.063-4.025-.076-1.56-.432-2.946-1.573-4.088C16.719.493 15.336.14 13.775.064 12.428-.01 11.094.001 9.75.001 8.404 0 7.07-.011 5.725.064 4.165.14 2.78.496 1.637 1.637.493 2.781.14 4.164.064 5.725-.01 7.072.001 8.406.001 9.75c0 1.344-.012 2.68.063 4.025.076 1.56.432 2.946 1.573 4.088 1.144 1.144 2.527 1.497 4.088 1.573 1.347.076 2.681.063 4.025.063 1.346 0 2.68.013 4.025-.063 1.56-.076 2.946-.432 4.088-1.573 1.144-1.144 1.497-2.527 1.573-4.088.078-1.344.063-2.679.063-4.025zm-9.751 5.003A4.996 4.996 0 014.745 9.75a4.996 4.996 0 015.003-5.003A4.996 4.996 0 0114.75 9.75a4.996 4.996 0 01-5.002 5.003zm5.207-9.042a1.167 1.167 0 01-1.168-1.169c0-.646.522-1.168 1.168-1.168a1.167 1.167 0 01.827 1.995 1.167 1.167 0 01-.827.342z" fill="#31352B"/></svg><svg fill="none" viewBox="0 0 21 22" id="search" xmlns="http://www.w3.org/2000/svg"><ellipse cx="9.767" cy="10.63" rx="8.989" ry="8.884" stroke="#363853" stroke-width="1.5" stroke-linecap="round" stroke-linejoin="round"/><path d="M16.018 17.27l3.524 3.475" stroke="#363853" stroke-width="1.5" stroke-linecap="round" stroke-linejoin="round"/></svg><svg fill="none" viewBox="0 0 21 17" id="twitter" xmlns="http://www.w3.org/2000/svg"><path d="M20.526 1.98a8.436 8.436 0 01-2.422.652 4.196 4.196 0 001.85-2.319 8.304 8.304 0 01-2.67 1.017A4.196 4.196 0 0014.212 0a4.205 4.205 0 00-4.206 4.208c0 .326.04.652.104.965A11.954 11.954 0 011.436.77a4.177 4.177 0 00-.573 2.124c0 1.46.743 2.748 1.875 3.505a4.243 4.243 0 01-1.902-.535v.051a4.207 4.207 0 003.372 4.13 4.456 4.456 0 01-1.107.143c-.274 0-.533-.027-.795-.064a4.214 4.214 0 003.933 2.918 8.43 8.43 0 01-5.223 1.798c-.352 0-.678-.012-1.016-.051a11.911 11.911 0 006.46 1.887c7.737 0 11.97-6.41 11.97-11.972 0-.182 0-.365-.013-.547a9.06 9.06 0 002.11-2.176z" fill="#31352B"/></svg></svg>

<svg xmlns="http://www.w3.org/2000/svg">
  <symbol id="facebook" viewBox="0 0 10 21">
    <path d="M2.54678 20.5263V10.8948H0V7.42695H2.54678V4.46499C2.54678 2.13745 4.05118 0 7.51762 0C8.92113 0 9.95896 0.13455 9.95896 0.13455L9.87718 3.3729C9.87718 3.3729 8.81876 3.3626 7.66377 3.3626C6.41371 3.3626 6.21344 3.93867 6.21344 4.89481V7.42695H9.97655L9.81281 10.8948H6.21344V20.5263H2.54678Z" fill="#31352B"/>
</svg>
  </symbol>

</svg>