<svg width="44" height="34" viewBox="0 0 44 34" xmlns="http://www.w3.org/2000/svg">
<path d="M15.1315 8.56679H17.2563C17.8077 8.56679 18.2562 9.0153 18.2562 9.56667V11.0316C18.2562 11.3875 18.5448 11.6761 18.9007 11.6761C19.2567 11.6761 19.5453 11.3875 19.5453 11.0316V9.56667C19.5453 8.30451 18.5184 7.27773 17.2563 7.27773H15.1315C14.5894 7.27773 14.1484 6.83669 14.1484 6.2946C14.1484 5.75251 14.5894 5.31156 15.1315 5.31156H19.843C21.0959 5.31156 22.1151 4.29226 22.1151 3.03937C22.1151 1.78649 21.0958 0.767273 19.843 0.767273H16.0738C15.7179 0.767273 15.4293 1.05585 15.4293 1.4118C15.4293 1.76776 15.7179 2.05634 16.0738 2.05634H19.843C20.3851 2.05634 20.8261 2.49737 20.8261 3.03937C20.8261 3.58147 20.385 4.0225 19.843 4.0225H15.1315C13.8786 4.0225 12.8593 5.0418 12.8593 6.2946C12.8593 7.54748 13.8786 8.56679 15.1315 8.56679Z"/>
<path d="M7.38855 12.8925H9.49711C10.0414 12.8925 10.4844 13.3354 10.4844 13.8798V15.3336C10.4844 15.6895 10.7729 15.9781 11.1289 15.9781C11.4848 15.9781 11.7734 15.6895 11.7734 15.3336V13.8798C11.7734 12.6246 10.7522 11.6034 9.49711 11.6034H7.38855C6.85333 11.6034 6.41797 11.168 6.41797 10.6329C6.41797 10.0977 6.85342 9.66229 7.38855 9.66229H9.85384C10.2098 9.66229 10.4984 9.37371 10.4984 9.01776C10.4984 8.66181 10.2098 8.37323 9.85384 8.37323H7.38855C6.14254 8.37323 5.12891 9.38686 5.12891 10.6329C5.12891 11.8789 6.14254 12.8925 7.38855 12.8925Z"/>
<path d="M25.6523 21.8125C26.0083 21.8125 26.2969 21.5239 26.2969 21.168C26.2969 20.812 26.0083 20.5234 25.6523 20.5234C25.2964 20.5234 25.0078 20.812 25.0078 21.168C25.0078 21.5239 25.2964 21.8125 25.6523 21.8125Z"/>
<path d="M28.832 23.2734C29.188 23.2734 29.4766 22.9849 29.4766 22.6289C29.4766 22.2729 29.188 21.9844 28.832 21.9844C28.4761 21.9844 28.1875 22.2729 28.1875 22.6289C28.1875 22.9849 28.4761 23.2734 28.832 23.2734Z"/>
<path d="M30.7227 25.5078C31.0786 25.5078 31.3672 25.2192 31.3672 24.8633C31.3672 24.5073 31.0786 24.2188 30.7227 24.2188C30.3667 24.2188 30.0781 24.5073 30.0781 24.8633C30.0781 25.2192 30.3667 25.5078 30.7227 25.5078Z"/>
<path d="M28.0586 20.2656C28.4146 20.2656 28.7031 19.9771 28.7031 19.6211C28.7031 19.2651 28.4146 18.9766 28.0586 18.9766C27.7026 18.9766 27.4141 19.2651 27.4141 19.6211C27.4141 19.9771 27.7026 20.2656 28.0586 20.2656Z"/>
<path d="M25.9102 25.9375C26.2661 25.9375 26.5547 25.6489 26.5547 25.293C26.5547 24.937 26.2661 24.6484 25.9102 24.6484C25.5542 24.6484 25.2656 24.937 25.2656 25.293C25.2656 25.6489 25.5542 25.9375 25.9102 25.9375Z"/>
<path d="M42.9114 17.811H41.083L41.9867 15.9433C43.1331 15.7151 44 14.7014 44 13.4889C44 12.2453 43.0882 11.2112 41.8981 11.0187C40.5827 8.64954 38.0131 6.87021 34.8968 6.15993V6.11078C34.8968 5.75483 34.6083 5.46625 34.2523 5.46625C33.9573 5.46625 33.7091 5.66468 33.6326 5.93521C33.2401 5.88459 32.8407 5.85176 32.4363 5.83501C32.333 5.61724 32.1116 5.46625 31.8545 5.46625C31.5973 5.46625 31.376 5.61724 31.2726 5.83501C30.8681 5.85176 30.4687 5.88459 30.0762 5.93529C29.9998 5.66476 29.7516 5.46625 29.4565 5.46625C29.1005 5.46625 28.812 5.75483 28.812 6.11078V6.15993C25.6958 6.87021 23.1261 8.64963 21.8108 11.0187C20.6207 11.2112 19.709 12.2453 19.709 13.4889C19.709 13.5616 19.7123 13.6334 19.7184 13.7044C16.7427 13.9811 14.0692 15.2243 12.0633 17.0896H8.01359C7.73755 17.0896 7.4904 17.2135 7.32316 17.408H5.43039C5.12033 16.6246 4.35067 16.071 3.47342 16.071C2.31344 16.071 1.36976 17.0147 1.36976 18.1747C1.36976 18.2738 1.37758 18.3717 1.39124 18.4683C0.580851 18.7609 0 19.5376 0 20.4475C0 20.8515 0.114727 21.2398 0.325445 21.5722C0.114727 21.9047 0 22.2931 0 22.6971C0 23.857 0.94368 24.8007 2.10366 24.8007C2.98091 24.8007 3.75057 24.2471 4.06063 23.4637H5.76537C5.84358 23.751 6.0592 23.988 6.35087 24.0871L8.37177 24.7733C8.35974 24.9815 8.35321 25.1911 8.35321 25.4022C8.35321 25.601 8.35888 25.7989 8.36945 25.9961C8.05346 26.0723 7.75852 26.2031 7.49607 26.3792C7.06398 26.0894 6.54491 25.9198 5.98666 25.9198C4.48791 25.9198 3.26863 27.1391 3.26863 28.6378C3.26863 28.6608 3.27035 28.6834 3.27095 28.7062H2.51685C2.09129 28.7062 1.71411 28.9452 1.53244 29.33C1.35077 29.7148 1.40585 30.1579 1.6763 30.4864L3.6098 32.836C3.81743 33.0881 4.12371 33.2327 4.45036 33.2327H31.7103C32.0663 33.2327 32.3548 32.9442 32.3548 32.5882C32.3548 32.2323 32.0663 31.9437 31.7103 31.9437H4.54498L2.94147 29.9952H42.4853L40.8818 31.9437H34.7181C34.362 31.9437 34.0735 32.2323 34.0735 32.5882C34.0735 32.9442 34.362 33.2327 34.7181 33.2327H40.9764C41.3031 33.2327 41.6095 33.088 41.8169 32.8359L43.7504 30.4865C44.0207 30.1579 44.0759 29.7148 43.8942 29.33C43.7126 28.9451 43.3354 28.7062 42.9099 28.7062H42.2716C42.905 27.6101 43.143 26.3111 42.9119 25.0346C42.8639 24.7702 42.657 24.5632 42.3925 24.5153C40.6466 24.1992 38.857 24.758 37.6048 26.0101C37.5283 26.0866 37.4554 26.1658 37.3842 26.2463C37.0148 26.0462 36.594 25.9302 36.1474 25.9214V24.695H36.835C37.925 24.695 38.8117 23.8083 38.8117 22.7184V21.8532H42.9114C43.5116 21.8532 44 21.3648 44 20.7646V18.8996C44 18.2993 43.5116 17.811 42.9114 17.811ZM6.29054 28.7062H4.56002C4.5589 28.6836 4.5577 28.6609 4.5577 28.6379C4.5577 27.85 5.1987 27.209 5.98666 27.209C6.21079 27.209 6.42254 27.2615 6.61126 27.354C6.40535 27.7366 6.28813 28.1738 6.28813 28.6379C6.28822 28.6609 6.28994 28.6834 6.29054 28.7062ZM38.5163 26.9217C39.3595 26.0786 40.5223 25.6483 41.7005 25.7268C41.7727 26.8121 41.412 27.8848 40.6953 28.7062H39.6325L40.5131 27.8256C40.7648 27.5739 40.7648 27.1658 40.5131 26.9142C40.2613 26.6625 39.8533 26.6625 39.6015 26.9142L38.6882 27.8275C38.6075 27.5699 38.4893 27.3287 38.3402 27.1101C38.3969 27.0457 38.4553 26.9827 38.5163 26.9217ZM25.5032 8.94225C26.4787 8.28869 27.6054 7.79851 28.812 7.49016V8.15343C28.812 8.50938 29.1005 8.79796 29.4565 8.79796C29.8126 8.79796 30.1011 8.50938 30.1011 8.15343V7.23458C30.4665 7.18259 30.8368 7.14822 31.2099 7.12905V8.15343C31.2099 8.50938 31.4984 8.79796 31.8545 8.79796C32.2105 8.79796 32.499 8.50938 32.499 8.15343V7.12905C32.8721 7.1483 33.2424 7.18268 33.6077 7.23458V8.15343C33.6077 8.50938 33.8962 8.79796 34.2523 8.79796C34.6083 8.79796 34.8968 8.50938 34.8968 8.15343V7.49016C36.1035 7.79851 37.2302 8.28869 38.2057 8.94233C39.1561 9.57905 39.9304 10.3479 40.4945 11.1983C40.2768 11.2941 40.0729 11.4201 39.89 11.5733C39.4452 11.2006 38.8773 10.9862 38.2829 10.9862C37.6885 10.9862 37.1205 11.2005 36.6758 11.5733C36.231 11.2006 35.663 10.9862 35.0687 10.9862C34.4743 10.9862 33.9063 11.2005 33.4616 11.5733C33.0168 11.2006 32.4488 10.9862 31.8545 10.9862C31.26 10.9862 30.6921 11.2005 30.2473 11.5733C29.8025 11.2006 29.2346 10.9862 28.6402 10.9862C28.0458 10.9862 27.4778 11.2005 27.0331 11.5733C26.5884 11.2006 26.0204 10.9862 25.426 10.9862C24.8316 10.9862 24.2637 11.2006 23.8189 11.5733C23.6361 11.4201 23.4321 11.2941 23.2144 11.1983C23.7785 10.3478 24.5528 9.57896 25.5032 8.94225ZM22.2117 12.2752C22.642 12.2752 23.0441 12.5078 23.2612 12.8822C23.3765 13.081 23.5889 13.2035 23.8188 13.2035C24.0486 13.2035 24.261 13.0811 24.3763 12.8823C24.5935 12.5078 24.9957 12.2752 25.4259 12.2752C25.8562 12.2752 26.2584 12.5078 26.4755 12.8822C26.5908 13.081 26.8031 13.2035 27.033 13.2035C27.2629 13.2035 27.4752 13.0811 27.5906 12.8822C27.8077 12.5078 28.2098 12.2752 28.6401 12.2752C29.0703 12.2752 29.4725 12.5078 29.6898 12.8823C29.8051 13.0811 30.0175 13.2035 30.2472 13.2035C30.4771 13.2035 30.6895 13.0811 30.8048 12.8822C31.0219 12.5078 31.4241 12.2752 31.8544 12.2752C32.2846 12.2752 32.6868 12.5078 32.904 12.8823C33.0192 13.0811 33.2317 13.2035 33.4615 13.2035C33.6914 13.2035 33.9037 13.0811 34.019 12.8822C34.2361 12.5078 34.6383 12.2752 35.0686 12.2752C35.4988 12.2752 35.901 12.5078 36.1182 12.8823C36.2336 13.0811 36.4459 13.2035 36.6757 13.2035C36.9056 13.2035 37.118 13.0811 37.2333 12.8822C37.4504 12.5078 37.8525 12.2752 38.2828 12.2752C38.713 12.2752 39.1152 12.5078 39.3325 12.8823C39.4477 13.0811 39.6602 13.2035 39.89 13.2035C40.1198 13.2035 40.3322 13.0811 40.4475 12.8822C40.6646 12.5078 41.0668 12.2752 41.4971 12.2752C42.1663 12.2752 42.7108 12.8196 42.7108 13.4889C42.7108 14.1581 42.1663 14.7026 41.4971 14.7026C41.0668 14.7026 40.6646 14.4699 40.4475 14.0955C40.3322 13.8967 40.1198 13.7743 39.89 13.7743C39.6602 13.7743 39.4477 13.8966 39.3325 14.0954C39.1152 14.4699 38.713 14.7026 38.2828 14.7026C37.8525 14.7026 37.4504 14.4699 37.2333 14.0955C37.118 13.8967 36.9056 13.7743 36.6757 13.7743C36.4459 13.7743 36.2335 13.8966 36.1182 14.0954C35.901 14.4699 35.4988 14.7026 35.0686 14.7026C34.6383 14.7026 34.2361 14.4699 34.019 14.0955C33.9037 13.8967 33.6914 13.7743 33.4615 13.7743C33.2317 13.7743 33.0192 13.8966 32.904 14.0954C32.6868 14.4699 32.2846 14.7026 31.8544 14.7026C31.4241 14.7026 31.0219 14.4699 30.8048 14.0955C30.6895 13.8967 30.4771 13.7743 30.2472 13.7743C30.0175 13.7743 29.805 13.8966 29.6898 14.0954C29.4725 14.4699 29.0703 14.7026 28.6401 14.7026C28.2098 14.7026 27.8077 14.4699 27.5906 14.0955C27.4752 13.8967 27.2629 13.7743 27.033 13.7743C26.8031 13.7743 26.5908 13.8966 26.4755 14.0955C26.3486 14.3143 26.1583 14.4842 25.9363 14.588C24.4222 13.9848 22.7569 13.6492 21.0094 13.6459C21.0026 13.5944 20.998 13.5422 20.998 13.4889C20.998 12.8196 21.5424 12.2752 22.2117 12.2752ZM8.39163 18.3786H10.8635C10.6095 18.695 10.3712 19.0227 10.1518 19.3624H8.39163V18.3786ZM5.7328 22.1746H3.5567C3.22145 22.1746 2.94216 22.4317 2.9144 22.7658C2.87968 23.1841 2.52355 23.5117 2.10375 23.5117C1.65455 23.5117 1.28915 23.1463 1.28915 22.6971C1.28915 22.4535 1.397 22.2245 1.58512 22.0689C1.7331 21.9464 1.81878 21.7644 1.81878 21.5722C1.81878 21.3801 1.7331 21.1981 1.58512 21.0756C1.397 20.92 1.28915 20.691 1.28915 20.4474C1.28915 19.9982 1.65455 19.6328 2.10375 19.6328C2.52355 19.6328 2.87968 19.9604 2.9144 20.3786C2.94216 20.7128 3.22145 20.9698 3.5567 20.9698H5.73289V22.1746H5.7328ZM5.95332 19.6808H4.06063C3.82362 19.082 3.31779 18.6185 2.70093 18.4328C2.67343 18.3505 2.65873 18.2635 2.65873 18.1746C2.65873 17.7254 3.02414 17.36 3.47334 17.36C3.89314 17.36 4.24927 17.6877 4.28407 18.1059C4.31183 18.44 4.59113 18.697 4.92637 18.697H7.10256V19.3624H6.64383C6.3678 19.3624 6.12055 19.4864 5.95332 19.6808ZM10.433 28.7062H7.5796C7.57848 28.6836 7.57728 28.6609 7.57728 28.6379C7.57728 27.85 8.21829 27.209 9.00625 27.209C9.79421 27.209 10.4352 27.85 10.4352 28.6379C10.4353 28.6609 10.434 28.6836 10.433 28.7062ZM30.3116 28.7062H28.0679C28.0668 28.6836 28.0656 28.6609 28.0656 28.6379C28.0656 27.85 28.7066 27.209 29.4946 27.209C29.8885 27.209 30.2459 27.3692 30.5046 27.628C30.3791 27.9405 30.3093 28.2811 30.3093 28.6379C30.3092 28.6609 30.311 28.6834 30.3116 28.7062ZM29.4946 25.9198C27.9959 25.9198 26.7765 27.1391 26.7765 28.6378C26.7765 28.6608 26.7782 28.6834 26.7788 28.7062H11.722C11.7226 28.6833 11.7244 28.6608 11.7244 28.6378C11.7244 27.3649 10.8446 26.2941 9.66135 26.0001C9.64915 25.8017 9.64227 25.6024 9.64227 25.4022C9.64227 25.3365 9.64322 25.271 9.64451 25.2055L16.2366 27.444C16.6807 27.5948 17.1349 27.6691 17.5847 27.6691C18.4345 27.6691 19.2687 27.4038 19.9891 26.8877C21.0906 26.0984 21.7223 24.8685 21.7223 23.5134C21.7223 23.0289 21.6392 22.5535 21.4753 22.1006C21.3541 21.7658 20.9846 21.5928 20.6498 21.7139C20.3151 21.8351 20.142 22.2046 20.2632 22.5394C20.3761 22.8512 20.4334 23.1789 20.4334 23.5133C20.4334 24.4476 19.9978 25.2956 19.2383 25.8397C18.479 26.3839 17.5359 26.5236 16.6512 26.2232L7.02195 22.9534V20.6515H17.5715C17.8948 20.6515 18.2133 20.7056 18.5182 20.8125C18.8543 20.9304 19.222 20.7534 19.3397 20.4174C19.4575 20.0814 19.2805 19.7137 18.9446 19.5959C18.5023 19.441 18.0403 19.3623 17.5715 19.3623H11.7273C13.7835 16.6856 17.1654 14.9345 20.9831 14.9345C27.2364 14.9345 32.3238 19.6303 32.3238 25.4021C32.3238 25.6084 32.3166 25.8136 32.3036 26.0179C31.9142 26.1258 31.5596 26.3184 31.2609 26.5746C30.7855 26.1669 30.1685 25.9198 29.4946 25.9198ZM34.454 28.7062H31.6006C31.5995 28.6836 31.5983 28.6609 31.5983 28.6379C31.5983 27.85 32.2393 27.209 33.0272 27.209C33.8152 27.209 34.4563 27.85 34.4563 28.6379C34.4563 28.6609 34.4551 28.6836 34.454 28.7062ZM34.8583 26.2197C34.7555 26.2726 34.6558 26.3305 34.5611 26.3955C34.2745 26.1988 33.9482 26.0569 33.5974 25.9816C33.6073 25.7893 33.6128 25.5962 33.6128 25.4023C33.6128 25.1647 33.6029 24.9293 33.5878 24.6951H34.8583V26.2197ZM37.5226 28.6378C37.5226 28.6608 37.5214 28.6835 37.5203 28.7062H35.743C35.7436 28.6833 35.7454 28.6608 35.7454 28.6378C35.7454 28.1811 35.6316 27.7505 35.4317 27.3723C35.6296 27.268 35.8547 27.2089 36.0937 27.2089C36.8816 27.2089 37.5226 27.8499 37.5226 28.6378ZM37.5226 22.7185C37.5226 23.0976 37.2142 23.406 36.835 23.406H33.4281C33.33 22.8758 33.1959 22.3568 33.0241 21.8532H37.5226V22.7185ZM42.7109 20.5641H32.4932C32.2456 20.0558 31.9601 19.5669 31.6404 19.1H34.375C34.731 19.1 35.0195 18.8114 35.0195 18.4554C35.0195 18.0995 34.731 17.8109 34.375 17.8109H30.6187C30.0022 17.134 29.3059 16.5222 28.5421 15.9894C28.5747 15.9907 28.6074 15.9916 28.6401 15.9916C29.2345 15.9916 29.8024 15.7772 30.2472 15.4045C30.692 15.7772 31.26 15.9916 31.8544 15.9916C32.4487 15.9916 33.0167 15.7772 33.4615 15.4045C33.9062 15.7772 34.4743 15.9916 35.0686 15.9916C35.6629 15.9916 36.2309 15.7772 36.6757 15.4045C37.1204 15.7772 37.6885 15.9916 38.2828 15.9916C38.8772 15.9916 39.4451 15.7772 39.89 15.4045C40.105 15.5847 40.3489 15.7274 40.6106 15.8273L39.6508 17.8109H37.3828C37.0268 17.8109 36.7383 18.0995 36.7383 18.4554C36.7383 18.8114 37.0268 19.1 37.3828 19.1H42.7109V20.5641Z"/>
</svg>
